<svg xmlns="http://www.w3.org/2000/svg" xml:space="preserve" id="c" x="0" y="0" style="enable-background:new 0 0 1921.33 1462.67" version="1.0" viewBox="0 0 1921.33 1462.67">
  <style>
    .st0{fill:#213147}.st1{fill:#12aaff}.st3{fill:#fff}
  </style>
  <path d="M510.14 515.68v431.21c0 27.53 14.71 52.99 38.54 66.71l373.44 215.65a77.169 77.169 0 0 0 77 0l373.44-215.65c23.83-13.72 38.54-39.18 38.54-66.71V515.68c0-27.53-14.71-52.99-38.54-66.71L999.12 233.32a77.169 77.169 0 0 0-77 0L548.59 448.97c-23.83 13.72-38.45 39.18-38.45 66.71z" class="st0"/>
  <path d="m1042.09 814.92-53.26 146.05a18.77 18.77 0 0 0 0 12.55l91.62 251.3 105.97-61.2-127.19-348.7c-2.89-8.03-14.26-8.03-17.15 0h.01zM1148.88 569.3c-2.89-8.03-14.26-8.03-17.15 0l-53.26 146.05a18.77 18.77 0 0 0 0 12.55l150.11 411.44 105.97-61.2-185.68-508.84h.01z" class="st1"/>
  <path d="M960.58 249.48c2.62 0 5.24.72 7.58 1.99l404.13 233.34c4.69 2.71 7.58 7.76 7.58 13.09v466.59c0 5.42-2.89 10.38-7.58 13.09l-404.13 233.34c-2.26 1.35-4.96 1.99-7.58 1.99s-5.24-.72-7.58-1.99L548.87 977.76c-4.69-2.71-7.58-7.76-7.58-13.09V497.99c0-5.42 2.89-10.38 7.58-13.09L953 251.56c2.35-1.35 4.96-2.08 7.58-2.08m0-68.15c-14.35 0-28.8 3.7-41.7 11.19L514.84 425.77c-25.82 14.89-41.7 42.43-41.7 72.21v466.59c0 29.79 15.89 57.32 41.7 72.21l404.13 233.34c12.91 7.4 27.26 11.19 41.7 11.19s28.8-3.7 41.7-11.19l404.13-233.34c25.82-14.89 41.7-42.43 41.7-72.21V497.98c0-29.79-15.89-57.32-41.7-72.21l-404.22-233.25c-12.91-7.49-27.35-11.19-41.7-11.19z" style="fill:#9dcced"/>
  <path d="m693.3 1139.88 37.19-101.82 74.83 62.19-69.96 63.91z" class="st0"/>
  <path d="M926.55 464.59H824.1c-7.67 0-14.53 4.78-17.15 12.01l-219.62 602.08 105.97 61.2 241.83-663.01c2.26-5.96-2.17-12.28-8.58-12.28zM1105.82 464.59h-102.45c-7.67 0-14.53 4.78-17.15 12.01l-250.76 687.48 105.97 61.2 272.97-748.41c2.17-5.96-2.26-12.28-8.58-12.28z" class="st3"/>
</svg>
