<svg xmlns="http://www.w3.org/2000/svg" xml:space="preserve" style="enable-background:new 0 0 449.6 328.7" viewBox="0 0 449.6 328.7">
  <circle cx="224.8" cy="164.3" r="127" style="fill-rule:evenodd;clip-rule:evenodd;fill:#e84142"/>
  <path d="M269.6 167.6c4.4-7.6 11.5-7.6 15.9 0l27.4 48.1c4.4 7.6.8 13.8-8 13.8h-55.2c-8.7 0-12.3-6.2-8-13.8l27.9-48.1zm-53-92.6c4.4-7.6 11.4-7.6 15.8 0l6.1 11 14.4 25.3c3.5 7.2 3.5 15.7 0 22.9l-48.3 83.7c-4.4 6.8-11.7 11.1-19.8 11.6h-40.1c-8.8 0-12.4-6.1-8-13.8L216.6 75z" style="fill:#fff"/>
</svg>
