<?xml version="1.0" encoding="UTF-8"?>
<svg id="Layer_1" data-name="Layer 1" xmlns="http://www.w3.org/2000/svg" viewBox="0 0 413.13 382.18">
  <defs>
    <style>
      .cls-1 {
        fill: #abdfef;
        stroke-width: 0px;
      }
    </style>
  </defs>
  <path class="cls-1" d="M258.78,185.76L405.9,0h-86.89c-17.95.18-33.49,8.62-46.64,25.32l-73.02,92.74L126.33,25.32C113,8.44,97.45,0,79.69,0H22.39C12.61,0,7.73,4.09,7.73,12.26c0,4.09,1.86,8.44,5.6,13.06l126.59,160.44-79.35,101.23L5.6,357.13c-3.73,4.79-5.6,9.15-5.6,13.06,1.07,8,6.04,11.99,14.93,11.99h56.77c17.77,0,33.22-8.35,46.37-25.05l81.29-103.67,81.29,103.67c13.14,16.7,28.6,25.05,46.37,25.05h86.12l-154.34-196.42Z"/>
  <polygon class="cls-1" points="286.03 186.08 362.3 282.96 362.3 89.21 286.03 186.08"/>
</svg>